# xmcd
#
# Track frame offsets: 
#        150
#        16926
#        47291
#        71369
#        109751
#        123133
#        147030
#        190480
#        221245
#        255682
#        275726
#
# Disc length: 4139 seconds
#
# Revision: 0
# Processed by: cddbd v1.5.2PL0 Copyright (c) Steve Scherf et al.
# Submitted via: ExactAudioCopy v0.95b4
#
DISCID=9e10290b
DTITLE=Riddle Band, Steve - Truth
DYEAR=2007
DGENRE=
TTITLE0=You Got A Love Like That
TTITLE1=Rain
TTITLE2=Dead to This World
TTITLE3=Truth
TTITLE4=Last Call
TTITLE5=Break Me Down
TTITLE6=Soulshine
TTITLE7=Sanctified
TTITLE8=Shine
TTITLE9=Gonna Stand
TTITLE10=Coming Home (Della's Song)
EXTD=
EXTT0=
EXTT1=
EXTT2=
EXTT3=
EXTT4=
EXTT5=
EXTT6=
EXTT7=
EXTT8=
EXTT9=
EXTT10=
PLAYORDER=
